  0
SECTION
  2
HEADER
  9
$ANGBASE
  50
0.0
  9
$ANGDIR
  70
1
  9
$MEASUREMENT
  70
0
  0
ENDSEC
  0
SECTION
  2
TABLES
  0
TABLE
  2
LTYPE
  70
4
  0
LTYPE
  5
40F
  2
CONTINUOUS
  70
0
  3
Solid line
  72
65
  73
0
  40
0.0
  0
LTYPE
  5
410
  2
DASHDOT
 70
0
  3
Dash Dot ____ _ ____ _
 72
65
 73
4
 40
2.0
 49
1.25
 49
-0.25
 49
0.25
 49
-0.25
  0
LTYPE
  5
411
  2
DASHED
 70
0
  3
Dashed __ __ __ __ __
 72
65
 73
2
 40
0.75
 49
0.5
 49
-0.25
  0
LTYPE
  5
43B
  2
DOTTED
 70
0
  3
Dotted .  .  .  .
 72
65
 73
2
 40
0.2
 49
0.0
 49
-0.2
  0
ENDTAB
  0
TABLE
  2
STYLE
  70
4
  0
STYLE
  2
KICAD
  70
0
  40
0
  41
1
  42
1
  50
0
  71
0
  3
isocp.shx
  0
STYLE
  2
KICADB
  70
0
  40
0
  41
1
  42
1
  50
0
  71
0
  3
isocp.shx
  0
STYLE
  2
KICADI
  70
0
  40
0
  41
1
  42
1
  50
15
  71
0
  3
isocp.shx
  0
STYLE
  2
KICADBI
  70
0
  40
0
  41
1
  42
1
  50
15
  71
0
  3
isocp.shx
  0
ENDTAB
  0
TABLE
  2
LAYER
  70
1
  0
LAYER
  2
BLACK
  70
0
  62
7
  6
CONTINUOUS
  0
ENDTAB
  0
ENDSEC
  0
SECTION
  2
ENTITIES
0
LINE
8
BLACK
6
CONTINUOUS
10
5.84455
20
-5.77328
11
5.83429
21
-5.77124
0
LINE
8
BLACK
6
CONTINUOUS
10
5.83429
20
-5.77124
11
5.82439
21
-5.76788
0
LINE
8
BLACK
6
CONTINUOUS
10
5.82439
20
-5.76788
11
5.81501
21
-5.76325
0
LINE
8
BLACK
6
CONTINUOUS
10
5.81501
20
-5.76325
11
5.80631
21
-5.75744
0
LINE
8
BLACK
6
CONTINUOUS
10
5.80631
20
-5.75744
11
5.79845
21
-5.75055
0
LINE
8
BLACK
6
CONTINUOUS
10
5.79845
20
-5.75055
11
5.79155
21
-5.74268
0
LINE
8
BLACK
6
CONTINUOUS
10
5.79155
20
-5.74268
11
5.78574
21
-5.73398
0
LINE
8
BLACK
6
CONTINUOUS
10
5.78574
20
-5.73398
11
5.78111
21
-5.7246
0
LINE
8
BLACK
6
CONTINUOUS
10
5.78111
20
-5.7246
11
5.77775
21
-5.7147
0
LINE
8
BLACK
6
CONTINUOUS
10
5.77775
20
-5.7147
11
5.77571
21
-5.70444
0
LINE
8
BLACK
6
CONTINUOUS
10
5.77571
20
-5.70444
11
5.77502
21
-5.694
0
LINE
8
BLACK
6
CONTINUOUS
10
5.77502
20
-5.694
11
5.77502
21
-4.62953
0
LINE
8
BLACK
6
CONTINUOUS
10
5.77502
20
-4.62953
11
5.77571
21
-4.61909
0
LINE
8
BLACK
6
CONTINUOUS
10
5.77571
20
-4.61909
11
5.77775
21
-4.60883
0
LINE
8
BLACK
6
CONTINUOUS
10
5.77775
20
-4.60883
11
5.78111
21
-4.59892
0
LINE
8
BLACK
6
CONTINUOUS
10
5.78111
20
-4.59892
11
5.78574
21
-4.58954
0
LINE
8
BLACK
6
CONTINUOUS
10
5.78574
20
-4.58954
11
5.79155
21
-4.58085
0
LINE
8
BLACK
6
CONTINUOUS
10
5.79155
20
-4.58085
11
5.79845
21
-4.57298
0
LINE
8
BLACK
6
CONTINUOUS
10
5.79845
20
-4.57298
11
5.80631
21
-4.56608
0
LINE
8
BLACK
6
CONTINUOUS
10
5.80631
20
-4.56608
11
5.81501
21
-4.56027
0
LINE
8
BLACK
6
CONTINUOUS
10
5.81501
20
-4.56027
11
5.82439
21
-4.55565
0
LINE
8
BLACK
6
CONTINUOUS
10
5.82439
20
-4.55565
11
5.83429
21
-4.55228
0
LINE
8
BLACK
6
CONTINUOUS
10
5.83429
20
-4.55228
11
5.84455
21
-4.55024
0
LINE
8
BLACK
6
CONTINUOUS
10
5.84455
20
-4.55024
11
5.85499
21
-4.54956
0
LINE
8
BLACK
6
CONTINUOUS
10
5.85499
20
-4.54956
11
9.20022
21
-4.54956
0
LINE
8
BLACK
6
CONTINUOUS
10
9.20022
20
-4.54956
11
9.20022
21
-1.83499
0
LINE
8
BLACK
6
CONTINUOUS
10
9.20022
20
-1.83499
11
9.2008
21
-1.8336
0
LINE
8
BLACK
6
CONTINUOUS
10
9.2008
20
-1.8336
11
9.20219
21
-1.83302
0
LINE
8
BLACK
6
CONTINUOUS
10
9.20219
20
-1.83302
11
9.634
21
-1.83302
0
LINE
8
BLACK
6
CONTINUOUS
10
9.634
20
-1.83302
11
9.64444
21
-1.83371
0
LINE
8
BLACK
6
CONTINUOUS
10
9.64444
20
-1.83371
11
9.6547
21
-1.83575
0
LINE
8
BLACK
6
CONTINUOUS
10
9.6547
20
-1.83575
11
9.6646
21
-1.83911
0
LINE
8
BLACK
6
CONTINUOUS
10
9.6646
20
-1.83911
11
9.67398
21
-1.84374
0
LINE
8
BLACK
6
CONTINUOUS
10
9.67398
20
-1.84374
11
9.68268
21
-1.84955
0
LINE
8
BLACK
6
CONTINUOUS
10
9.68268
20
-1.84955
11
9.69055
21
-1.85645
0
LINE
8
BLACK
6
CONTINUOUS
10
9.69055
20
-1.85645
11
9.69744
21
-1.86431
0
LINE
8
BLACK
6
CONTINUOUS
10
9.69744
20
-1.86431
11
9.70325
21
-1.87301
0
LINE
8
BLACK
6
CONTINUOUS
10
9.70325
20
-1.87301
11
9.70788
21
-1.88239
0
LINE
8
BLACK
6
CONTINUOUS
10
9.70788
20
-1.88239
11
9.71124
21
-1.89229
0
LINE
8
BLACK
6
CONTINUOUS
10
9.71124
20
-1.89229
11
9.71328
21
-1.90255
0
LINE
8
BLACK
6
CONTINUOUS
10
9.71328
20
-1.90255
11
9.71397
21
-1.91299
0
LINE
8
BLACK
6
CONTINUOUS
10
9.71397
20
-1.91299
11
9.71397
21
-1.91299
0
LINE
8
BLACK
6
CONTINUOUS
10
9.71397
20
-1.91299
11
9.71597
21
-5.694
0
LINE
8
BLACK
6
CONTINUOUS
10
9.71597
20
-5.694
11
9.71597
21
-5.694
0
LINE
8
BLACK
6
CONTINUOUS
10
9.71597
20
-5.694
11
9.71597
21
-5.694
0
LINE
8
BLACK
6
CONTINUOUS
10
9.71597
20
-5.694
11
9.71528
21
-5.70444
0
LINE
8
BLACK
6
CONTINUOUS
10
9.71528
20
-5.70444
11
9.71324
21
-5.7147
0
LINE
8
BLACK
6
CONTINUOUS
10
9.71324
20
-5.7147
11
9.70988
21
-5.7246
0
LINE
8
BLACK
6
CONTINUOUS
10
9.70988
20
-5.7246
11
9.70525
21
-5.73398
0
LINE
8
BLACK
6
CONTINUOUS
10
9.70525
20
-5.73398
11
9.69944
21
-5.74268
0
LINE
8
BLACK
6
CONTINUOUS
10
9.69944
20
-5.74268
11
9.69255
21
-5.75055
0
LINE
8
BLACK
6
CONTINUOUS
10
9.69255
20
-5.75055
11
9.68468
21
-5.75744
0
LINE
8
BLACK
6
CONTINUOUS
10
9.68468
20
-5.75744
11
9.67598
21
-5.76325
0
LINE
8
BLACK
6
CONTINUOUS
10
9.67598
20
-5.76325
11
9.6666
21
-5.76788
0
LINE
8
BLACK
6
CONTINUOUS
10
9.6666
20
-5.76788
11
9.6567
21
-5.77124
0
LINE
8
BLACK
6
CONTINUOUS
10
9.6567
20
-5.77124
11
9.64644
21
-5.77328
0
LINE
8
BLACK
6
CONTINUOUS
10
9.64644
20
-5.77328
11
9.636
21
-5.77397
0
LINE
8
BLACK
6
CONTINUOUS
10
9.636
20
-5.77397
11
5.85499
21
-5.77397
0
LINE
8
BLACK
6
CONTINUOUS
10
5.85499
20
-5.77397
11
5.84455
21
-5.77328
0
LINE
8
BLACK
6
CONTINUOUS
10
9.20416
20
-4.55153
11
9.20358
21
-4.55292
0
LINE
8
BLACK
6
CONTINUOUS
10
9.20358
20
-4.55292
11
9.20219
21
-4.5535
0
LINE
8
BLACK
6
CONTINUOUS
10
9.20219
20
-4.5535
11
5.85499
21
-4.5535
0
LINE
8
BLACK
6
CONTINUOUS
10
5.85499
20
-4.5535
11
5.85465
21
-4.55336
0
LINE
8
BLACK
6
CONTINUOUS
10
5.85465
20
-4.55336
11
5.84505
21
-4.55398
0
LINE
8
BLACK
6
CONTINUOUS
10
5.84505
20
-4.55398
11
5.83527
21
-4.55593
0
LINE
8
BLACK
6
CONTINUOUS
10
5.83527
20
-4.55593
11
5.82583
21
-4.55913
0
LINE
8
BLACK
6
CONTINUOUS
10
5.82583
20
-4.55913
11
5.81689
21
-4.56354
0
LINE
8
BLACK
6
CONTINUOUS
10
5.81689
20
-4.56354
11
5.80861
21
-4.56908
0
LINE
8
BLACK
6
CONTINUOUS
10
5.80861
20
-4.56908
11
5.80111
21
-4.57565
0
LINE
8
BLACK
6
CONTINUOUS
10
5.80111
20
-4.57565
11
5.79454
21
-4.58314
0
LINE
8
BLACK
6
CONTINUOUS
10
5.79454
20
-4.58314
11
5.78901
21
-4.59143
0
LINE
8
BLACK
6
CONTINUOUS
10
5.78901
20
-4.59143
11
5.7846
21
-4.60037
0
LINE
8
BLACK
6
CONTINUOUS
10
5.7846
20
-4.60037
11
5.78139
21
-4.60981
0
LINE
8
BLACK
6
CONTINUOUS
10
5.78139
20
-4.60981
11
5.77945
21
-4.61958
0
LINE
8
BLACK
6
CONTINUOUS
10
5.77945
20
-4.61958
11
5.77882
21
-4.62919
0
LINE
8
BLACK
6
CONTINUOUS
10
5.77882
20
-4.62919
11
5.77896
21
-4.62953
0
LINE
8
BLACK
6
CONTINUOUS
10
5.77896
20
-4.62953
11
5.77896
21
-5.694
0
LINE
8
BLACK
6
CONTINUOUS
10
5.77896
20
-5.694
11
5.77882
21
-5.69434
0
LINE
8
BLACK
6
CONTINUOUS
10
5.77882
20
-5.69434
11
5.77945
21
-5.70395
0
LINE
8
BLACK
6
CONTINUOUS
10
5.77945
20
-5.70395
11
5.78139
21
-5.71372
0
LINE
8
BLACK
6
CONTINUOUS
10
5.78139
20
-5.71372
11
5.7846
21
-5.72316
0
LINE
8
BLACK
6
CONTINUOUS
10
5.7846
20
-5.72316
11
5.78901
21
-5.7321
0
LINE
8
BLACK
6
CONTINUOUS
10
5.78901
20
-5.7321
11
5.79454
21
-5.74038
0
LINE
8
BLACK
6
CONTINUOUS
10
5.79454
20
-5.74038
11
5.80111
21
-5.74788
0
LINE
8
BLACK
6
CONTINUOUS
10
5.80111
20
-5.74788
11
5.80861
21
-5.75445
0
LINE
8
BLACK
6
CONTINUOUS
10
5.80861
20
-5.75445
11
5.81689
21
-5.75999
0
LINE
8
BLACK
6
CONTINUOUS
10
5.81689
20
-5.75999
11
5.82583
21
-5.76439
0
LINE
8
BLACK
6
CONTINUOUS
10
5.82583
20
-5.76439
11
5.83527
21
-5.7676
0
LINE
8
BLACK
6
CONTINUOUS
10
5.83527
20
-5.7676
11
5.84505
21
-5.76954
0
LINE
8
BLACK
6
CONTINUOUS
10
5.84505
20
-5.76954
11
5.85465
21
-5.77017
0
LINE
8
BLACK
6
CONTINUOUS
10
5.85465
20
-5.77017
11
5.85499
21
-5.77003
0
LINE
8
BLACK
6
CONTINUOUS
10
5.85499
20
-5.77003
11
9.636
21
-5.77003
0
LINE
8
BLACK
6
CONTINUOUS
10
9.636
20
-5.77003
11
9.63634
21
-5.77017
0
LINE
8
BLACK
6
CONTINUOUS
10
9.63634
20
-5.77017
11
9.64595
21
-5.76954
0
LINE
8
BLACK
6
CONTINUOUS
10
9.64595
20
-5.76954
11
9.65572
21
-5.7676
0
LINE
8
BLACK
6
CONTINUOUS
10
9.65572
20
-5.7676
11
9.66516
21
-5.76439
0
LINE
8
BLACK
6
CONTINUOUS
10
9.66516
20
-5.76439
11
9.6741
21
-5.75999
0
LINE
8
BLACK
6
CONTINUOUS
10
9.6741
20
-5.75999
11
9.68238
21
-5.75445
0
LINE
8
BLACK
6
CONTINUOUS
10
9.68238
20
-5.75445
11
9.68988
21
-5.74788
0
LINE
8
BLACK
6
CONTINUOUS
10
9.68988
20
-5.74788
11
9.69645
21
-5.74038
0
LINE
8
BLACK
6
CONTINUOUS
10
9.69645
20
-5.74038
11
9.70199
21
-5.7321
0
LINE
8
BLACK
6
CONTINUOUS
10
9.70199
20
-5.7321
11
9.70639
21
-5.72316
0
LINE
8
BLACK
6
CONTINUOUS
10
9.70639
20
-5.72316
11
9.7096
21
-5.71372
0
LINE
8
BLACK
6
CONTINUOUS
10
9.7096
20
-5.71372
11
9.71154
21
-5.70395
0
LINE
8
BLACK
6
CONTINUOUS
10
9.71154
20
-5.70395
11
9.71217
21
-5.69434
0
LINE
8
BLACK
6
CONTINUOUS
10
9.71217
20
-5.69434
11
9.71203
21
-5.694
0
LINE
8
BLACK
6
CONTINUOUS
10
9.71203
20
-5.694
11
9.71003
21
-1.91299
0
LINE
8
BLACK
6
CONTINUOUS
10
9.71003
20
-1.91299
11
9.71003
21
-1.91299
0
LINE
8
BLACK
6
CONTINUOUS
10
9.71003
20
-1.91299
11
9.71003
21
-1.91299
0
LINE
8
BLACK
6
CONTINUOUS
10
9.71003
20
-1.91299
11
9.71017
21
-1.91265
0
LINE
8
BLACK
6
CONTINUOUS
10
9.71017
20
-1.91265
11
9.70954
21
-1.90305
0
LINE
8
BLACK
6
CONTINUOUS
10
9.70954
20
-1.90305
11
9.7076
21
-1.89327
0
LINE
8
BLACK
6
CONTINUOUS
10
9.7076
20
-1.89327
11
9.70439
21
-1.88383
0
LINE
8
BLACK
6
CONTINUOUS
10
9.70439
20
-1.88383
11
9.69999
21
-1.87489
0
LINE
8
BLACK
6
CONTINUOUS
10
9.69999
20
-1.87489
11
9.69445
21
-1.86661
0
LINE
8
BLACK
6
CONTINUOUS
10
9.69445
20
-1.86661
11
9.68788
21
-1.85911
0
LINE
8
BLACK
6
CONTINUOUS
10
9.68788
20
-1.85911
11
9.68038
21
-1.85254
0
LINE
8
BLACK
6
CONTINUOUS
10
9.68038
20
-1.85254
11
9.6721
21
-1.84701
0
LINE
8
BLACK
6
CONTINUOUS
10
9.6721
20
-1.84701
11
9.66316
21
-1.8426
0
LINE
8
BLACK
6
CONTINUOUS
10
9.66316
20
-1.8426
11
9.65372
21
-1.83939
0
LINE
8
BLACK
6
CONTINUOUS
10
9.65372
20
-1.83939
11
9.64395
21
-1.83745
0
LINE
8
BLACK
6
CONTINUOUS
10
9.64395
20
-1.83745
11
9.63434
21
-1.83682
0
LINE
8
BLACK
6
CONTINUOUS
10
9.63434
20
-1.83682
11
9.634
21
-1.83696
0
LINE
8
BLACK
6
CONTINUOUS
10
9.634
20
-1.83696
11
9.20416
21
-1.83696
0
LINE
8
BLACK
6
CONTINUOUS
10
9.20416
20
-1.83696
11
9.20416
21
-4.55153
  0
ENDSEC
  0
EOF
